<?xml version="1.0" encoding="UTF-8"?>
<svg version="1.1" xmlns="http://www.w3.org/2000/svg" width="876" height="527">
<path d="M0 0 C289.08 0 578.16 0 876 0 C876 173.91 876 347.82 876 527 C586.92 527 297.84 527 0 527 C0 353.09 0 179.18 0 0 Z " fill="#FEFEFE" transform="translate(0,0)"/>
<path d="M0 0 C115.5 0 231 0 350 0 C350 57.75 350 115.5 350 175 C234.5 175 119 175 0 175 C0 117.25 0 59.5 0 0 Z " fill="#3B5A64" transform="translate(525,351)"/>
<path d="M0 0 C58.08 0 116.16 0 176 0 C176 57.75 176 115.5 176 175 C117.92 175 59.84 175 0 175 C0 117.25 0 59.5 0 0 Z " fill="#FEFEFE" transform="translate(0,176)"/>
<path d="M0 0 C57.75 0 115.5 0 175 0 C175 57.75 175 115.5 175 175 C117.25 175 59.5 175 0 175 C0 117.25 0 59.5 0 0 Z " fill="#3B5A64" transform="translate(1,351)"/>
<path d="M0 0 C57.75 0 115.5 0 175 0 C175 57.75 175 115.5 175 175 C117.25 175 59.5 175 0 175 C0 117.25 0 59.5 0 0 Z " fill="#3B5A64" transform="translate(1,1)"/>
<path d="M0 0 C57.42 0 114.84 0 174 0 C174 57.42 174 114.84 174 174 C116.58 174 59.16 174 0 174 C0 116.58 0 59.16 0 0 Z " fill="#3B5A64" transform="translate(176,176)"/>
</svg>
